ISO-10303-21;
HEADER;
/* Generated by software containing ST-Developer
 * from STEP Tools, Inc. (www.steptools.com) 
 */

FILE_DESCRIPTION(
/* description */ (''),
/* implementation_level */ '2;1');

FILE_NAME(
/* name */ '',
/* time_stamp */ '2025-12-10T09:45:31+08:00',
/* author */ (''),
/* organization */ (''),
/* preprocessor_version */ 'ST-DEVELOPER v20.1',
/* originating_system */ 'Autodesk Translation Framework v14.21.0.0',
/* authorisation */ '');

FILE_SCHEMA (('AUTOMOTIVE_DESIGN { 1 0 10303 214 3 1 1 }'));
ENDSEC;

DATA;
#10=MECHANICAL_DESIGN_GEOMETRIC_PRESENTATION_REPRESENTATION('',(#13),#230);
#11=SHAPE_REPRESENTATION_RELATIONSHIP('SRR','None',#237,#12);
#12=ADVANCED_BREP_SHAPE_REPRESENTATION('',(#14),#229);
#13=STYLED_ITEM('',(#246),#14);
#14=MANIFOLD_SOLID_BREP('\X2\5B9E4F53\X0\1',#130);
#15=FACE_BOUND('',#37,.T.);
#16=PLANE('',#147);
#17=PLANE('',#148);
#18=PLANE('',#150);
#19=PLANE('',#151);
#20=PLANE('',#152);
#21=PLANE('',#154);
#22=FACE_OUTER_BOUND('',#30,.T.);
#23=FACE_OUTER_BOUND('',#31,.T.);
#24=FACE_OUTER_BOUND('',#32,.T.);
#25=FACE_OUTER_BOUND('',#33,.T.);
#26=FACE_OUTER_BOUND('',#34,.T.);
#27=FACE_OUTER_BOUND('',#35,.T.);
#28=FACE_OUTER_BOUND('',#36,.T.);
#29=FACE_OUTER_BOUND('',#38,.T.);
#30=EDGE_LOOP('',(#90,#91,#92,#93));
#31=EDGE_LOOP('',(#94));
#32=EDGE_LOOP('',(#95,#96,#97,#98));
#33=EDGE_LOOP('',(#99,#100,#101,#102));
#34=EDGE_LOOP('',(#103,#104,#105,#106));
#35=EDGE_LOOP('',(#107,#108,#109,#110));
#36=EDGE_LOOP('',(#111,#112,#113,#114));
#37=EDGE_LOOP('',(#115));
#38=EDGE_LOOP('',(#116,#117,#118,#119));
#39=LINE('',#198,#50);
#40=LINE('',#204,#51);
#41=LINE('',#206,#52);
#42=LINE('',#209,#53);
#43=LINE('',#212,#54);
#44=LINE('',#214,#55);
#45=LINE('',#215,#56);
#46=LINE('',#218,#57);
#47=LINE('',#220,#58);
#48=LINE('',#221,#59);
#49=LINE('',#224,#60);
#50=VECTOR('',#162,1.7);
#51=VECTOR('',#169,10.);
#52=VECTOR('',#170,10.);
#53=VECTOR('',#173,10.);
#54=VECTOR('',#176,10.);
#55=VECTOR('',#177,10.);
#56=VECTOR('',#178,10.);
#57=VECTOR('',#181,10.);
#58=VECTOR('',#182,10.);
#59=VECTOR('',#183,10.);
#60=VECTOR('',#188,10.);
#61=CIRCLE('',#145,1.8);
#62=CIRCLE('',#146,1.8);
#63=CIRCLE('',#149,28.5);
#64=CIRCLE('',#153,28.5);
#65=VERTEX_POINT('',#195);
#66=VERTEX_POINT('',#197);
#67=VERTEX_POINT('',#202);
#68=VERTEX_POINT('',#203);
#69=VERTEX_POINT('',#205);
#70=VERTEX_POINT('',#207);
#71=VERTEX_POINT('',#211);
#72=VERTEX_POINT('',#213);
#73=VERTEX_POINT('',#217);
#74=VERTEX_POINT('',#219);
#75=EDGE_CURVE('',#65,#65,#61,.T.);
#76=EDGE_CURVE('',#65,#66,#39,.T.);
#77=EDGE_CURVE('',#66,#66,#62,.T.);
#78=EDGE_CURVE('',#67,#68,#40,.F.);
#79=EDGE_CURVE('',#67,#69,#41,.T.);
#80=EDGE_CURVE('',#69,#70,#63,.T.);
#81=EDGE_CURVE('',#68,#70,#42,.T.);
#82=EDGE_CURVE('',#70,#71,#43,.T.);
#83=EDGE_CURVE('',#72,#71,#44,.T.);
#84=EDGE_CURVE('',#68,#72,#45,.F.);
#85=EDGE_CURVE('',#73,#67,#46,.F.);
#86=EDGE_CURVE('',#73,#74,#47,.T.);
#87=EDGE_CURVE('',#74,#69,#48,.T.);
#88=EDGE_CURVE('',#71,#74,#64,.T.);
#89=EDGE_CURVE('',#72,#73,#49,.F.);
#90=ORIENTED_EDGE('',*,*,#75,.F.);
#91=ORIENTED_EDGE('',*,*,#76,.T.);
#92=ORIENTED_EDGE('',*,*,#77,.T.);
#93=ORIENTED_EDGE('',*,*,#76,.F.);
#94=ORIENTED_EDGE('',*,*,#77,.F.);
#95=ORIENTED_EDGE('',*,*,#78,.F.);
#96=ORIENTED_EDGE('',*,*,#79,.T.);
#97=ORIENTED_EDGE('',*,*,#80,.T.);
#98=ORIENTED_EDGE('',*,*,#81,.F.);
#99=ORIENTED_EDGE('',*,*,#81,.T.);
#100=ORIENTED_EDGE('',*,*,#82,.T.);
#101=ORIENTED_EDGE('',*,*,#83,.F.);
#102=ORIENTED_EDGE('',*,*,#84,.F.);
#103=ORIENTED_EDGE('',*,*,#85,.F.);
#104=ORIENTED_EDGE('',*,*,#86,.T.);
#105=ORIENTED_EDGE('',*,*,#87,.T.);
#106=ORIENTED_EDGE('',*,*,#79,.F.);
#107=ORIENTED_EDGE('',*,*,#88,.T.);
#108=ORIENTED_EDGE('',*,*,#86,.F.);
#109=ORIENTED_EDGE('',*,*,#89,.F.);
#110=ORIENTED_EDGE('',*,*,#83,.T.);
#111=ORIENTED_EDGE('',*,*,#78,.T.);
#112=ORIENTED_EDGE('',*,*,#84,.T.);
#113=ORIENTED_EDGE('',*,*,#89,.T.);
#114=ORIENTED_EDGE('',*,*,#85,.T.);
#115=ORIENTED_EDGE('',*,*,#75,.T.);
#116=ORIENTED_EDGE('',*,*,#80,.F.);
#117=ORIENTED_EDGE('',*,*,#87,.F.);
#118=ORIENTED_EDGE('',*,*,#88,.F.);
#119=ORIENTED_EDGE('',*,*,#82,.F.);
#120=CYLINDRICAL_SURFACE('',#144,1.8);
#121=CYLINDRICAL_SURFACE('',#155,28.5);
#122=ADVANCED_FACE('',(#22),#120,.F.);
#123=ADVANCED_FACE('',(#23),#16,.F.);
#124=ADVANCED_FACE('',(#24),#17,.T.);
#125=ADVANCED_FACE('',(#25),#18,.T.);
#126=ADVANCED_FACE('',(#26),#19,.T.);
#127=ADVANCED_FACE('',(#27),#20,.T.);
#128=ADVANCED_FACE('',(#28,#15),#21,.F.);
#129=ADVANCED_FACE('',(#29),#121,.T.);
#130=CLOSED_SHELL('',(#122,#123,#124,#125,#126,#127,#128,#129));
#131=DERIVED_UNIT_ELEMENT(#133,1.);
#132=DERIVED_UNIT_ELEMENT(#232,-3.);
#133=(
MASS_UNIT()
NAMED_UNIT(*)
SI_UNIT(.KILO.,.GRAM.)
);
#134=DERIVED_UNIT((#131,#132));
#135=MEASURE_REPRESENTATION_ITEM('density measure',
POSITIVE_RATIO_MEASURE(7850.),#134);
#136=PROPERTY_DEFINITION_REPRESENTATION(#141,#138);
#137=PROPERTY_DEFINITION_REPRESENTATION(#142,#139);
#138=REPRESENTATION('material name',(#140),#229);
#139=REPRESENTATION('density',(#135),#229);
#140=DESCRIPTIVE_REPRESENTATION_ITEM('\X2\94A2\X0\','\X2\94A2\X0\');
#141=PROPERTY_DEFINITION('material property','material name',#239);
#142=PROPERTY_DEFINITION('material property','density of part',#239);
#143=AXIS2_PLACEMENT_3D('',#193,#156,#157);
#144=AXIS2_PLACEMENT_3D('',#194,#158,#159);
#145=AXIS2_PLACEMENT_3D('',#196,#160,#161);
#146=AXIS2_PLACEMENT_3D('',#199,#163,#164);
#147=AXIS2_PLACEMENT_3D('',#200,#165,#166);
#148=AXIS2_PLACEMENT_3D('',#201,#167,#168);
#149=AXIS2_PLACEMENT_3D('',#208,#171,#172);
#150=AXIS2_PLACEMENT_3D('',#210,#174,#175);
#151=AXIS2_PLACEMENT_3D('',#216,#179,#180);
#152=AXIS2_PLACEMENT_3D('',#222,#184,#185);
#153=AXIS2_PLACEMENT_3D('',#223,#186,#187);
#154=AXIS2_PLACEMENT_3D('',#225,#189,#190);
#155=AXIS2_PLACEMENT_3D('',#226,#191,#192);
#156=DIRECTION('axis',(0.,0.,1.));
#157=DIRECTION('refdir',(1.,0.,0.));
#158=DIRECTION('center_axis',(-8.74227765734797E-8,0.999999999999996,0.));
#159=DIRECTION('ref_axis',(0.,0.,-1.));
#160=DIRECTION('center_axis',(-8.74227765734797E-8,0.999999999999996,0.));
#161=DIRECTION('ref_axis',(0.,0.,-1.));
#162=DIRECTION('',(-8.74227765734797E-8,0.999999999999996,0.));
#163=DIRECTION('center_axis',(-8.74227765734797E-8,0.999999999999996,0.));
#164=DIRECTION('ref_axis',(0.,0.,-1.));
#165=DIRECTION('center_axis',(-8.74227765734797E-8,0.999999999999996,0.));
#166=DIRECTION('ref_axis',(0.,0.,-1.));
#167=DIRECTION('center_axis',(0.,0.,-1.));
#168=DIRECTION('ref_axis',(-0.999999999999996,-8.74228029650597E-8,0.));
#169=DIRECTION('',(-0.999999999999996,-8.74227765734797E-8,0.));
#170=DIRECTION('',(-8.74227765903885E-8,0.999999999999996,0.));
#171=DIRECTION('center_axis',(0.,0.,-1.));
#172=DIRECTION('ref_axis',(1.,-4.70197740328915E-37,6.7762635780344E-21));
#173=DIRECTION('',(-8.74227765903885E-8,0.999999999999996,0.));
#174=DIRECTION('center_axis',(0.999999999999996,8.74227765903885E-8,2.13504487540979E-14));
#175=DIRECTION('ref_axis',(2.135044278125E-14,6.832141690001E-14,-1.));
#176=DIRECTION('',(-6.7762635780344E-21,-6.93889390390723E-17,1.));
#177=DIRECTION('',(-8.74227765903885E-8,0.999999999999996,0.));
#178=DIRECTION('',(2.13504487540978E-14,1.86651551117303E-21,-1.));
#179=DIRECTION('center_axis',(-0.999999999999996,-8.74227765903885E-8,5.3290713305083E-14));
#180=DIRECTION('ref_axis',(5.329070518201E-14,9.291712698401E-14,1.));
#181=DIRECTION('',(5.32907133050828E-14,4.65882212271163E-21,1.));
#182=DIRECTION('',(-8.74227765903885E-8,0.999999999999996,0.));
#183=DIRECTION('',(6.7762635780344E-21,6.93889390390723E-17,-1.));
#184=DIRECTION('center_axis',(0.,0.,1.));
#185=DIRECTION('ref_axis',(0.999999999999996,8.74227392699197E-8,0.));
#186=DIRECTION('center_axis',(0.,0.,1.));
#187=DIRECTION('ref_axis',(1.,-4.70197740328915E-37,6.7762635780344E-21));
#188=DIRECTION('',(0.999999999999996,8.74227765734797E-8,0.));
#189=DIRECTION('center_axis',(-8.74227765734797E-8,0.999999999999996,0.));
#190=DIRECTION('ref_axis',(-0.999999999999996,-8.74227765734797E-8,0.));
#191=DIRECTION('center_axis',(-6.7762635780344E-21,-6.93889390390723E-17,
1.));
#192=DIRECTION('ref_axis',(1.,-4.70197740328915E-37,6.7762635780344E-21));
#193=CARTESIAN_POINT('',(0.,0.,0.));
#194=CARTESIAN_POINT('Origin',(0.0106647920695333,24.2977868155817,29.0661302647802));
#195=CARTESIAN_POINT('',(0.0106648182963665,23.9977868155817,30.8661302647802));
#196=CARTESIAN_POINT('Origin',(0.0106648182963663,23.9977868155817,29.0661302647802));
#197=CARTESIAN_POINT('',(0.0106645560280368,26.9977868155817,30.8661302647802));
#198=CARTESIAN_POINT('',(0.0106647920695335,24.2977868155817,30.8661302647802));
#199=CARTESIAN_POINT('Origin',(0.0106645560280365,26.9977868155817,29.0661302647802));
#200=CARTESIAN_POINT('Origin',(0.0106645560280365,26.9977868155817,29.0661302647802));
#201=CARTESIAN_POINT('Origin',(2.810665010626,21.7977870603677,26.0661302647797));
#202=CARTESIAN_POINT('',(-2.98933518170326,23.9977865533133,26.0661302647797));
#203=CARTESIAN_POINT('',(3.0106648182959,23.99778707785,26.0661302647797));
#204=CARTESIAN_POINT('',(2.91066481829639,23.9977870691077,26.0661302647797));
#205=CARTESIAN_POINT('',(-2.98933567520695,29.6428108098406,26.0661302647796));
#206=CARTESIAN_POINT('',(-2.98933498937315,21.7977865533177,26.0661302647797));
#207=CARTESIAN_POINT('',(3.01066432496488,29.6405164484436,26.0661302647796));
#208=CARTESIAN_POINT('Origin',(-0.000173344838925931,1.30000028295906,26.0661302647796));
#209=CARTESIAN_POINT('',(3.010665010626,21.7977870778509,26.0661302647797));
#210=CARTESIAN_POINT('Origin',(3.01066501062588,21.7977870778496,32.0661302647797));
#211=CARTESIAN_POINT('',(3.01066432499282,29.6405164484406,32.0661302647795));
#212=CARTESIAN_POINT('',(3.01066432496488,29.6405164484435,1334.97579763529));
#213=CARTESIAN_POINT('',(3.01066481829589,23.99778707785,32.0661302647797));
#214=CARTESIAN_POINT('',(3.010665010626,21.79778707785,32.0661302647797));
#215=CARTESIAN_POINT('',(3.01066481829583,23.99778707785,29.0661302647797));
#216=CARTESIAN_POINT('Origin',(-2.98933498937314,21.7977865533198,26.2661302647797));
#217=CARTESIAN_POINT('',(-2.98933518170711,23.9977865533133,32.0661302647797));
#218=CARTESIAN_POINT('',(-2.98933518170325,23.9977865533133,26.1661302647798));
#219=CARTESIAN_POINT('',(-2.9893356752108,29.6428108098402,32.0661302647795));
#220=CARTESIAN_POINT('',(-2.989334989377,21.79778655332,32.0661302647797));
#221=CARTESIAN_POINT('',(-2.9893356751372,29.6428108098479,1334.97579763529));
#222=CARTESIAN_POINT('Origin',(-2.989334989377,21.7977865533136,32.0661302647797));
#223=CARTESIAN_POINT('Origin',(-0.000173344838925931,1.30000028295906,32.0661302647795));
#224=CARTESIAN_POINT('',(0.0106648182948921,23.9977868155817,32.0661302647797));
#225=CARTESIAN_POINT('Origin',(3.01066481829689,23.99778707785,26.0661302647797));
#226=CARTESIAN_POINT('Origin',(-0.00017334483892594,1.30000028295897,1334.97579763529));
#227=UNCERTAINTY_MEASURE_WITH_UNIT(LENGTH_MEASURE(0.01),#231,
'DISTANCE_ACCURACY_VALUE',
'Maximum model space distance between geometric entities at asserted c
onnectivities');
#228=UNCERTAINTY_MEASURE_WITH_UNIT(LENGTH_MEASURE(0.01),#231,
'DISTANCE_ACCURACY_VALUE',
'Maximum model space distance between geometric entities at asserted c
onnectivities');
#229=(
GEOMETRIC_REPRESENTATION_CONTEXT(3)
GLOBAL_UNCERTAINTY_ASSIGNED_CONTEXT((#227))
GLOBAL_UNIT_ASSIGNED_CONTEXT((#231,#233,#234))
REPRESENTATION_CONTEXT('','3D')
);
#230=(
GEOMETRIC_REPRESENTATION_CONTEXT(3)
GLOBAL_UNCERTAINTY_ASSIGNED_CONTEXT((#228))
GLOBAL_UNIT_ASSIGNED_CONTEXT((#231,#233,#234))
REPRESENTATION_CONTEXT('','3D')
);
#231=(
LENGTH_UNIT()
NAMED_UNIT(*)
SI_UNIT(.MILLI.,.METRE.)
);
#232=(
LENGTH_UNIT()
NAMED_UNIT(*)
SI_UNIT($,.METRE.)
);
#233=(
NAMED_UNIT(*)
PLANE_ANGLE_UNIT()
SI_UNIT($,.RADIAN.)
);
#234=(
NAMED_UNIT(*)
SI_UNIT($,.STERADIAN.)
SOLID_ANGLE_UNIT()
);
#235=SHAPE_DEFINITION_REPRESENTATION(#236,#237);
#236=PRODUCT_DEFINITION_SHAPE('',$,#239);
#237=SHAPE_REPRESENTATION('',(#143),#229);
#238=PRODUCT_DEFINITION_CONTEXT('part definition',#243,'design');
#239=PRODUCT_DEFINITION('\X2\6309952E\X0\','\X2\6309952E\X0\',#240,#238);
#240=PRODUCT_DEFINITION_FORMATION('',$,#245);
#241=PRODUCT_RELATED_PRODUCT_CATEGORY('\X2\6309952E\X0\','\X2\6309952E\X0\',
(#245));
#242=APPLICATION_PROTOCOL_DEFINITION('international standard',
'automotive_design',2009,#243);
#243=APPLICATION_CONTEXT(
'Core Data for Automotive Mechanical Design Process');
#244=PRODUCT_CONTEXT('part definition',#243,'mechanical');
#245=PRODUCT('\X2\6309952E\X0\','\X2\6309952E\X0\',$,(#244));
#246=PRESENTATION_STYLE_ASSIGNMENT((#247));
#247=SURFACE_STYLE_USAGE(.BOTH.,#248);
#248=SURFACE_SIDE_STYLE('',(#249));
#249=SURFACE_STYLE_FILL_AREA(#250);
#250=FILL_AREA_STYLE('\X2\94A2\X0\ - \X2\7F0E5149\X0\',(#251));
#251=FILL_AREA_STYLE_COLOUR('\X2\94A2\X0\ - \X2\7F0E5149\X0\',#252);
#252=COLOUR_RGB('\X2\94A2\X0\ - \X2\7F0E5149\X0\',0.627450980392157,0.627450980392157,
0.627450980392157);
ENDSEC;
END-ISO-10303-21;
